<?xml version="1.0" encoding="utf-8"?>
<!-- Generator: Adobe Illustrator 18.1.0, SVG Export Plug-In . SVG Version: 6.00 Build 0)  -->
<!DOCTYPE svg PUBLIC "-//W3C//DTD SVG 1.1//EN" "http://www.w3.org/Graphics/SVG/1.1/DTD/svg11.dtd">
<svg version="1.1" id="Layer_1" xmlns="http://www.w3.org/2000/svg" xmlns:xlink="http://www.w3.org/1999/xlink" x="0px" y="0px"
	 viewBox="0 0 36 36" enable-background="new 0 0 36 36" xml:space="preserve">
<path fill-opacity="0.12" stroke="#000000" stroke-width="2" stroke-linejoin="round" stroke-miterlimit="10" d="M30.5,15.4
	c-0.1-0.6,0-1.1,0-1.6c0.3-0.1,0.8-1.1,0.9-1.9c0.2,0,0.6-0.2,0.7-1.1c0.1-0.5-0.2-0.7-0.3-0.8c0.4-1.1,1.1-4.4-1.4-4.8
	c-0.3-0.4-0.9-0.7-1.8-0.7c-3.4,0.1-3.8,2.6-3.1,5.4c-0.1,0.1-0.4,0.3-0.3,0.8c0.1,0.9,0.5,1.1,0.7,1.1c0.1,0.8,0.6,1.7,0.9,1.9
	c0,0.6,0,1,0,1.6c-0.2,0.6-0.9,1-1.7,1.3c-0.6-3.5-4.5-3.1-5.1-4.8c-0.1-0.6,0-1.1,0-1.6c0.3-0.1,0.8-1.1,0.9-1.9
	c0.2,0,0.6-0.2,0.7-1.1c0.1-0.5-0.2-0.7-0.3-0.8c0.4-1.1,1.1-4.4-1.4-4.8C19.5,1.2,18.8,1,18,1c-3.4,0.1-3.8,2.6-3.1,5.4
	c-0.1,0.1-0.4,0.3-0.3,0.8c0.1,0.9,0.5,1.1,0.7,1.1c0.1,0.8,0.6,1.7,0.9,1.9c0,0.6,0,1,0,1.6c-0.6,1.7-4.5,1.4-5.1,4.8
	c-0.8-0.3-1.5-0.7-1.7-1.3c-0.1-0.6,0-1.1,0-1.6c0.3-0.1,0.8-1.1,0.9-1.9c0.2,0,0.6-0.2,0.7-1.1c0.1-0.5-0.2-0.7-0.3-0.8
	c0.7-2.9,0.3-5.4-3.1-5.4c-0.9,0-1.5,0.2-1.8,0.7C3.2,5.6,3.9,8.9,4.3,10c-0.1,0.1-0.4,0.3-0.3,0.8c0.1,0.9,0.5,1.1,0.7,1.1
	c0.1,0.8,0.6,1.7,0.9,1.9c0,0.6,0,1,0,1.6c-0.7,1.8-4.3,1.3-4.5,4.8v7.8c0,0,0.8,7.1,9.2,7.1h15.6c8.4,0,9.2-7.1,9.2-7.1v-7.8
	C34.8,16.6,31.2,17.2,30.5,15.4z"/>
<path fill-opacity="0.3" stroke="#000000" stroke-width="2" stroke-linejoin="round" stroke-miterlimit="10" d="M30.5,15.4
	c-0.1-0.6,0-1.1,0-1.6c0.3-0.1,0.8-1.1,0.9-1.9c0.2,0,0.6-0.2,0.7-1.1c0.1-0.5-0.2-0.7-0.3-0.8c0.4-1.1,1.1-4.4-1.4-4.8
	c-0.3-0.4-0.9-0.7-1.8-0.7c-3.4,0.1-3.8,2.6-3.1,5.4c-0.1,0.1-0.4,0.3-0.3,0.8c0.1,0.9,0.5,1.1,0.7,1.1c0.1,0.8,0.6,1.7,0.9,1.9
	c0,0.6,0,1,0,1.6c-0.2,0.6-0.9,1-1.7,1.3c-0.6-3.5-4.5-3.1-5.1-4.8c-0.1-0.6,0-1.1,0-1.6c0.3-0.1,0.8-1.1,0.9-1.9
	c0.2,0,0.6-0.2,0.7-1.1c0.1-0.5-0.2-0.7-0.3-0.8c0.4-1.1,1.1-4.4-1.4-4.8C19.5,1.2,18.8,1,18,1c-3.4,0.1-3.8,2.6-3.1,5.4
	c-0.1,0.1-0.4,0.3-0.3,0.8c0.1,0.9,0.5,1.1,0.7,1.1c0.1,0.8,0.6,1.7,0.9,1.9c0,0.6,0,1,0,1.6c-0.6,1.7-4.5,1.4-5.1,4.8
	c-0.8-0.3-1.5-0.7-1.7-1.3c-0.1-0.6,0-1.1,0-1.6c0.3-0.1,0.8-1.1,0.9-1.9c0.2,0,0.6-0.2,0.7-1.1c0.1-0.5-0.2-0.7-0.3-0.8
	c0.7-2.9,0.3-5.4-3.1-5.4c-0.9,0-1.5,0.2-1.8,0.7C3.2,5.6,3.9,8.9,4.3,10c-0.1,0.1-0.4,0.3-0.3,0.8c0.1,0.9,0.5,1.1,0.7,1.1
	c0.1,0.8,0.6,1.7,0.9,1.9c0,0.6,0,1,0,1.6c-0.7,1.8-4.3,1.3-4.5,4.8v7.8c0,0,0.8,7.1,9.2,7.1v-0.7c0.2-3.8,5-3.2,5.7-5.2
	c0.1-0.7,0-1.1,0-1.8c-0.3-0.2-0.9-1.2-1-2c-0.2,0-0.6-0.3-0.7-1.2c-0.1-0.5,0.2-0.8,0.3-0.9c-0.8-3.1-0.4-5.9,3.3-5.9
	c0.9,0,1.6,0.2,1.9,0.7c2.7,0.4,1.9,4,1.5,5.2c0.1,0.1,0.4,0.4,0.3,0.9c-0.1,0.9-0.5,1.2-0.7,1.2c-0.1,0.9-0.6,1.9-0.9,2
	c0,0.6,0,1.1,0,1.8c0.7,2,5.5,1.4,5.7,5.2V35c8.4,0,9.2-7.1,9.2-7.1v-7.8C34.8,16.6,31.2,17.2,30.5,15.4z"/>
</svg>
