<?xml version="1.0" encoding="utf-8"?>
<!-- Generator: Adobe Illustrator 18.1.0, SVG Export Plug-In . SVG Version: 6.00 Build 0)  -->
<!DOCTYPE svg PUBLIC "-//W3C//DTD SVG 1.1//EN" "http://www.w3.org/Graphics/SVG/1.1/DTD/svg11.dtd">
<svg version="1.1" id="Layer_1" xmlns="http://www.w3.org/2000/svg" xmlns:xlink="http://www.w3.org/1999/xlink" x="0px" y="0px"
	 viewBox="0 0 36 36" enable-background="new 0 0 36 36" xml:space="preserve">
<path fill-opacity="0.15" d="M18,2.2L5,13v22h26V13L18,2.2z M21,18h-6v-6h6V18z"/>
<polygon fill="none" stroke="#000000" stroke-width="2" stroke-miterlimit="10" points="31,35 5,35 5,13 18,2.2 31,13 "/>
<polyline fill="none" stroke="#000000" stroke-width="3" stroke-miterlimit="10" points="1.2,16.1 18,2.2 34.8,16.1 "/>
<path d="M13,23v12h10V23H13z M22,30h-1v-2h1V30z"/>
<path d="M27,3v6.7l4,3.3V3H27z"/>
<g>
	<path d="M21,12v6h-6v-6H21 M22,11h-1h-6h-1v1v6v1h1h6h1v-1v-6V11L22,11z"/>
</g>
</svg>
