<?xml version="1.0" encoding="utf-8"?>
<!-- Generator: Adobe Illustrator 18.1.0, SVG Export Plug-In . SVG Version: 6.00 Build 0)  -->
<!DOCTYPE svg PUBLIC "-//W3C//DTD SVG 1.1//EN" "http://www.w3.org/Graphics/SVG/1.1/DTD/svg11.dtd">
<svg version="1.1" id="Layer_1" xmlns="http://www.w3.org/2000/svg" xmlns:xlink="http://www.w3.org/1999/xlink" x="0px" y="0px"
	 viewBox="0 0 36 36" enable-background="new 0 0 36 36" xml:space="preserve">
<path fill-opacity="0.4" stroke="#000000" stroke-width="2" stroke-linejoin="round" stroke-miterlimit="10" d="M32,16
	c-1.7,0-3-1.3-3-3h-0.1c-0.2,1.7-1.7,3-3.4,3s-3.2-1.3-3.4-3h-0.2c-0.4,1.7-2,3-3.9,3s-3.4-1.3-3.9-3h-0.2c-0.2,1.7-1.7,3-3.4,3
	s-3.2-1.3-3.4-3H7c0,1.7-1.3,3-3,3c-0.8,0-1.5-0.3-2-0.8V35h21V20h7v15h4V15.2C33.5,15.7,32.8,16,32,16z M18,30H7V20h11V30z"/>
<rect x="2" y="1" fill-opacity="0.4" stroke="#000000" stroke-width="2" stroke-linejoin="round" stroke-miterlimit="10" width="32" height="5"/>
<line fill="none" stroke="#000000" stroke-width="2" stroke-linejoin="round" stroke-miterlimit="10" x1="30" y1="35" x2="23" y2="35"/>
<path fill-opacity="0.12" stroke="#000000" stroke-width="2" stroke-linejoin="round" stroke-miterlimit="10" d="M22,6h-8
	c0,0,0,5,0,6c0,2.2,1.8,4,4,4s4-1.8,4-4C22,11,22,6,22,6z"/>
<path fill-opacity="0.12" stroke="#000000" stroke-width="2" stroke-linejoin="round" stroke-miterlimit="10" d="M29,6h-7
	c0,0,0,5.6,0,6.5c0,1.9,1.6,3.5,3.5,3.5s3.5-1.6,3.5-3.5C29,11.6,29,6,29,6z"/>
<path fill-opacity="0.12" stroke="#000000" stroke-width="2" stroke-linejoin="round" stroke-miterlimit="10" d="M34,6h-5
	c0,0,0,6.2,0,7c0,1.7,1.3,3,3,3s3-1.3,3-3C35,12.2,34,6,34,6z"/>
<path fill-opacity="0.12" stroke="#000000" stroke-width="2" stroke-linejoin="round" stroke-miterlimit="10" d="M7,6h7
	c0,0,0,5.6,0,6.5c0,1.9-1.6,3.5-3.5,3.5S7,14.4,7,12.5C7,11.6,7,6,7,6z"/>
<path fill-opacity="0.12" stroke="#000000" stroke-width="2" stroke-linejoin="round" stroke-miterlimit="10" d="M2,6h5
	c0,0,0,6.2,0,7c0,1.7-1.3,3-3,3s-3-1.3-3-3C1,12.2,2,6,2,6z"/>
</svg>
