<?xml version="1.0" encoding="utf-8"?>
<!-- Generator: Adobe Illustrator 18.1.0, SVG Export Plug-In . SVG Version: 6.00 Build 0)  -->
<!DOCTYPE svg PUBLIC "-//W3C//DTD SVG 1.1//EN" "http://www.w3.org/Graphics/SVG/1.1/DTD/svg11.dtd">
<svg version="1.1" id="Layer_1" xmlns="http://www.w3.org/2000/svg" xmlns:xlink="http://www.w3.org/1999/xlink" x="0px" y="0px"
	 viewBox="0 0 36 36" enable-background="new 0 0 36 36" xml:space="preserve">
<path fill-opacity="0.15" d="M32.8,15.9c-2.2,2.2-5.5,2.6-8.6,1.3c-0.1-0.8-0.4-1.6-0.9-2.1l-2-2c-0.5-0.5-2.1-2.2-2.6-2.6L18,9.7
	c-0.5-2.5,0.1-5,1.9-6.7c2.3-2.3,5.8-2.6,9-1.2l-6.1,6.1l5.3,5.3l6-6C35.4,10.3,35.1,13.7,32.8,15.9z M16.8,24.3
	c-0.7-0.1-1.3-0.4-1.8-0.9l-2-2c-0.4-0.4-1.3-1.3-2-2l-6.9,6.9c-0.5,0.2-1,0.5-1.4,0.9c-1.6,1.6-1.6,4.2,0,5.8
	c1.6,1.6,4.2,1.6,5.8,0c0.4-0.4,0.7-0.9,0.9-1.4L16.8,24.3z"/>
<circle cx="5.5" cy="30.3" r="1.3"/>
<path fill-opacity="0.12" stroke="#000000" stroke-width="2" stroke-linejoin="round" stroke-miterlimit="10" d="M17.3,11.8L8.2,2
	c-1.1-1.2-2.9-1.2-4-0.1L1.8,4.3c-1.1,1.1-1.1,2.9,0.1,4l9.9,9.1c0.4,0.4,1,0.3,1.3,0l0,0c0.2-0.2,0.5-0.2,0.7,0l0.4,0.4
	c0.2,0.2,0.2,0.4,0.1,0.6c-0.3,0.5-0.2,1.2,0.2,1.7l2,2c0.5,0.5,1.4,0.5,2,0l3.5-3.5c0.5-0.5,0.5-1.4,0-2l-2-2
	c-0.5-0.5-1.1-0.5-1.7-0.2c-0.2,0.1-0.5,0.1-0.6-0.1l-0.4-0.4c-0.2-0.2-0.2-0.5,0-0.7l0,0C17.6,12.8,17.6,12.2,17.3,11.8z"/>
<polygon fill-opacity="0.12" stroke="#000000" stroke-width="2" stroke-linejoin="round" stroke-miterlimit="10" points="28.7,26.4 
	21.3,19.1 19,21.4 26.4,28.8 27.1,31.5 31.9,35 34.9,32 31.5,27.1 "/>
<g>
	<path d="M15.8,23.9l-7,7c-0.1,0.1-0.2,0.2-0.2,0.3c-0.2,0.4-0.4,0.8-0.7,1.1c-1.2,1.2-3.2,1.2-4.4,0c-0.6-0.6-0.9-1.4-0.9-2.2
		s0.3-1.6,0.9-2.2c0.3-0.3,0.7-0.5,1.1-0.7c0.1-0.1,0.2-0.1,0.3-0.2l6.9-6.9c-0.6-0.6-1.1-1.1-1.4-1.3l-0.1-0.1l-6.8,6.8
		C3,25.8,2.5,26.1,2,26.6c-1,1-1.5,2.2-1.5,3.6s0.5,2.6,1.5,3.6c1,1,2.2,1.5,3.6,1.5c1.4,0,2.7-0.5,3.6-1.5c0.5-0.5,0.8-1,1.1-1.6
		l8-8C17.5,24.5,16.6,24.4,15.8,23.9z"/>
	<path d="M35.1,6.8c-0.1-0.3-0.4-0.5-0.7-0.6c-0.3-0.1-0.7,0-0.9,0.3l-5.3,5.3l-3.9-3.9l5.4-5.4c0.2-0.2,0.3-0.6,0.3-0.9
		c-0.1-0.3-0.3-0.6-0.6-0.7c-1.4-0.6-2.8-1-4.3-1c-2.3,0-4.4,0.8-5.9,2.3c-0.3,0.3-0.5,0.5-0.7,0.8c-0.1,0.1-0.1,0.2-0.2,0.3
		C18.2,3.6,18,3.8,17.9,4c-0.1,0.1-0.1,0.2-0.2,0.3c-0.1,0.3-0.2,0.5-0.3,0.8c-0.1,0.2-0.1,0.4-0.2,0.6c0,0.1-0.1,0.2-0.1,0.3
		c-0.2,0.8-0.3,1.6-0.2,2.4v0l1.9,2c0.2,0.2,0.5,0.5,0.8,0.8c-1.2-2.8-0.8-5.8,1.1-7.6c1.1-1.1,2.7-1.8,4.4-1.8c0.7,0,1.4,0.1,2,0.3
		l-5,5c-0.4,0.4-0.4,1,0,1.4l5.3,5.3c0.2,0.2,0.4,0.3,0.7,0.3s0.5-0.1,0.7-0.3l4.9-4.9c0.5,2.3,0,4.6-1.6,6.1
		C31,16.3,29.4,17,27.7,17c-1.1,0-2.2-0.2-3.3-0.7c-0.1-0.1-0.3-0.1-0.4-0.1c0.3,0.7,0.4,1.5,0.2,2.2l0.1-0.1
		c1.1,0.4,2.3,0.6,3.5,0.6c2.3,0,4.3-0.8,5.9-2.3C36,14.2,36.6,10.4,35.1,6.8z"/>
</g>
</svg>
